<svg width="33" height="33" viewBox="0 0 33 33" fill="none" xmlns="http://www.w3.org/2000/svg">
<g clip-path="url(#clip0_13_1944)">
<g clip-path="url(#clip1_13_1944)">
<path d="M20.3333 21.25L22.5833 23.5C23.0472 23.9643 23.3077 24.5937 23.3077 25.25C23.3077 25.9063 23.0472 26.5357 22.5833 27M1.83331 13.75V1.75H11.9333C12.2333 1.75 12.5343 1.77 12.8333 1.808M4.58331 16L4.08331 16.5C3.6269 16.9657 3.37273 17.5927 3.37602 18.2448C3.37932 18.8969 3.63981 19.5213 4.1009 19.9824C4.56199 20.4435 5.18642 20.704 5.83849 20.7073C6.49056 20.7106 7.11759 20.4564 7.58331 20L8.08331 19.5C8.53972 19.0343 8.7939 18.4073 8.7906 17.7552C8.78731 17.1031 8.52681 16.4787 8.06572 16.0176C7.60463 15.5565 6.98021 15.296 6.32814 15.2927C5.67606 15.2894 5.04904 15.5436 4.58331 16Z" stroke="#00A3FE" stroke-width="1.5" stroke-linecap="round" stroke-linejoin="round"/>
<path d="M8.22131 19.363L7.44631 20.138C6.9899 20.6038 6.73573 21.2308 6.73902 21.8829C6.74232 22.5349 7.00281 23.1594 7.4639 23.6205C7.92499 24.0815 8.54942 24.342 9.20149 24.3453C9.85356 24.3486 10.4806 24.0944 10.9463 23.638L11.7223 22.863C11.956 22.6341 12.1419 22.3611 12.2694 22.0598C12.3968 21.7585 12.4633 21.435 12.465 21.1079C12.4666 20.7807 12.4034 20.4565 12.279 20.154C12.1546 19.8515 11.9714 19.5766 11.7401 19.3453C11.5088 19.114 11.2339 18.9308 10.9314 18.8064C10.6288 18.682 10.3046 18.6187 9.97749 18.6204C9.65037 18.622 9.32682 18.6885 9.02555 18.816C8.72429 18.9435 8.45028 19.1294 8.22131 19.363Z" stroke="#00A3FE" stroke-width="1.5" stroke-linecap="round" stroke-linejoin="round"/>
<path d="M11.4463 23.1351L10.9463 23.6351C10.7127 23.864 10.5267 24.137 10.3993 24.4383C10.2718 24.7396 10.2053 25.0631 10.2037 25.3902C10.202 25.7174 10.2652 26.0416 10.3897 26.3441C10.5141 26.6466 10.6972 26.9215 10.9285 27.1528C11.1599 27.3841 11.4347 27.5673 11.7373 27.6917C12.0398 27.8161 12.364 27.8794 12.6911 27.8777C13.0183 27.876 13.3418 27.8096 13.6431 27.6821C13.9443 27.5546 14.2173 27.3687 14.4463 27.1351L14.9463 26.6351C15.4027 26.1693 15.6569 25.5423 15.6536 24.8902C15.6503 24.2382 15.3898 23.6137 14.9287 23.1526C14.4676 22.6916 13.8432 22.4311 13.1911 22.4278C12.5391 22.4245 11.912 22.6786 11.4463 23.1351Z" stroke="#00A3FE" stroke-width="1.5" stroke-linecap="round" stroke-linejoin="round"/>
<path d="M23.8313 17.75L26.8563 20.775C27.0899 21.004 27.2759 21.277 27.4033 21.5782C27.5308 21.8795 27.5973 22.2031 27.599 22.5302C27.6006 22.8573 27.5374 23.1815 27.413 23.484C27.2886 23.7866 27.1054 24.0615 26.8741 24.2928C26.6428 24.5241 26.3679 24.7072 26.0654 24.8317C25.7628 24.9561 25.4386 25.0193 25.1115 25.0176C24.7844 25.016 24.4608 24.9495 24.1596 24.822C23.8583 24.6946 23.5853 24.5086 23.3563 24.275M14.9853 26.597L14.4653 27.117C14.2683 27.314 14.112 27.5478 14.0054 27.8052C13.8987 28.0626 13.8439 28.3384 13.8439 28.617C13.8439 28.8956 13.8987 29.1714 14.0054 29.4288C14.112 29.6862 14.2683 29.92 14.4653 30.117H14.4663C14.6632 30.3141 14.897 30.4705 15.1544 30.5772C15.4118 30.6839 15.6877 30.7389 15.9663 30.7389C16.2449 30.7389 16.5208 30.6839 16.7782 30.5772C17.0356 30.4705 17.2694 30.3141 17.4663 30.117L17.9863 29.597C18.1833 29.4 18.3396 29.1662 18.4462 28.9088C18.5529 28.6514 18.6078 28.3756 18.6078 28.097C18.6078 27.8184 18.5529 27.5426 18.4462 27.2852C18.3396 27.0278 18.1833 26.794 17.9863 26.597C17.7893 26.4 17.5545 26.2437 17.2971 26.1371C17.0398 26.0304 16.7639 25.9755 16.4853 25.9755C16.2067 25.9755 15.9309 26.0304 15.6735 26.1371C15.4161 26.2437 15.1823 26.4 14.9853 26.597Z" stroke="#00A3FE" stroke-width="1.5" stroke-linecap="round" stroke-linejoin="round"/>
<path d="M26.5833 20.5C27.052 20.9413 27.6742 21.1826 28.3179 21.1729C28.9615 21.1632 29.5761 20.9032 30.0313 20.448C30.4865 19.9928 30.7465 19.3782 30.7562 18.7345C30.7659 18.0909 30.5246 17.4687 30.0833 17L20.8333 7.75" stroke="#00A3FE" stroke-width="1.5" stroke-linecap="round" stroke-linejoin="round"/>
<path d="M20.8333 7.75L13.9333 12.923C13.6262 13.1528 13.265 13.2996 12.8846 13.3492C12.5042 13.3988 12.1174 13.3495 11.7616 13.2061C11.4058 13.0626 11.093 12.8299 10.8533 12.5304C10.6136 12.2309 10.4552 11.8746 10.3933 11.496C10.3368 11.1472 10.364 10.7899 10.4727 10.4537C10.5813 10.1174 10.7684 9.81179 11.0183 9.562L16.7833 3.8C17.4334 3.15001 18.2051 2.63442 19.0544 2.28268C19.9037 1.93094 20.814 1.74993 21.7333 1.75H31.8333V13.75" stroke="#00A3FE" stroke-width="1.5" stroke-linecap="round" stroke-linejoin="round"/>
</g>
</g>
<defs>
<clipPath id="clip0_13_1944">
<rect width="32" height="32" fill="white" transform="translate(0.833313 0.25)"/>
</clipPath>
<clipPath id="clip1_13_1944">
<rect width="32" height="31" fill="white" transform="translate(0.833313 0.75)"/>
</clipPath>
</defs>
</svg>
