<svg width="16" height="17" viewBox="0 0 16 17" fill="none" xmlns="http://www.w3.org/2000/svg">
<path fill-rule="evenodd" clip-rule="evenodd" d="M8.76133 2.96191L9.94933 6.16325L13.234 6.34658C13.396 6.35525 13.552 6.41591 13.682 6.51991C13.8113 6.62391 13.9073 6.76658 13.9587 6.92991C14.01 7.09325 14.0133 7.26858 13.9687 7.43391C13.9252 7.59716 13.8345 7.74395 13.708 7.85591L11.1507 10.0199L12.0053 13.3486C12.0453 13.5166 12.0367 13.6932 11.98 13.8552C11.925 14.0158 11.8236 14.1564 11.6887 14.2592C11.5553 14.3592 11.396 14.4152 11.2327 14.4192C11.0678 14.4224 10.9061 14.3734 10.7707 14.2792L8 12.4039L5.236 14.2666C5.10145 14.3613 4.94051 14.4112 4.776 14.4092C4.61148 14.4065 4.45198 14.3522 4.32 14.2539C4.18472 14.1528 4.08242 14.0138 4.026 13.8546C3.96791 13.6927 3.95704 13.5177 3.99467 13.3499L4.84267 10.0352L2.292 7.85658C2.16549 7.74462 2.07482 7.59783 2.03133 7.43458C1.98655 7.26906 1.99002 7.09419 2.04133 6.93058C2.09106 6.7696 2.18732 6.62694 2.318 6.52058C2.448 6.41658 2.604 6.35591 2.766 6.34725L6.05067 6.16391L7.23867 2.96258C7.3 2.80258 7.40533 2.66525 7.54133 2.56925C7.67484 2.47292 7.83526 2.42102 7.99989 2.4209C8.16452 2.42078 8.32502 2.47244 8.45867 2.56858C8.59467 2.66525 8.69933 2.80191 8.76133 2.96191Z" fill="#14A800" stroke="#14A800" stroke-linecap="round" stroke-linejoin="round"/>
</svg>
