<svg width="24" height="24" viewBox="0 0 24 24" fill="none" xmlns="http://www.w3.org/2000/svg">
<path d="M19.015 16.114L11.976 20.692C11.6666 20.893 11.3055 21 10.9365 21C10.5675 21 10.2064 20.893 9.89702 20.692L2.85802 16.114C2.59307 15.9394 2.37586 15.7014 2.22604 15.4217C2.07623 15.142 1.99854 14.8293 2.00002 14.512V4.907C2.00002 4.40123 2.20094 3.91618 2.55857 3.55855C2.9162 3.20092 3.40125 3 3.90702 3H17.966C18.4717 3.00026 18.9566 3.20127 19.3142 3.55884C19.6718 3.91641 19.8728 4.40131 19.873 4.907V14.512C19.8745 14.8293 19.7968 15.142 19.647 15.4217C19.4972 15.7014 19.28 15.9394 19.015 16.114Z" stroke="#00A3FE" stroke-width="1.5" stroke-linecap="round" stroke-linejoin="round"/>
<path d="M10.939 5.33008L12.331 8.92608L16.185 9.13608L13.19 11.5771L14.182 15.3071L10.939 13.2071L7.69599 15.3071L8.69799 11.5771L5.69299 9.13508L9.55599 8.92508L10.939 5.33008Z" stroke="#00A3FE" stroke-width="1.5" stroke-linecap="round" stroke-linejoin="round"/>
</svg>
