<svg width="515" height="370" viewBox="0 0 515 370" fill="none" xmlns="http://www.w3.org/2000/svg">
<rect width="514.66" height="370" rx="8" fill="#F2F7F2"/>
<g clip-path="url(#clip0_50_69)">
<mask id="mask0_50_69" style="mask-type:luminance" maskUnits="userSpaceOnUse" x="4" y="14" width="506" height="370">
<path d="M509.09 14H3.99994V383.999H509.09V14Z" fill="white"/>
</mask>
<g mask="url(#mask0_50_69)">
<path d="M509.09 14H3.99994V383.999H509.09V14Z" fill="#F2F7F2"/>
<mask id="mask1_50_69" style="mask-type:luminance" maskUnits="userSpaceOnUse" x="10" y="14" width="506" height="370">
<path d="M10.049 14H515.139V383.999H10.049V14Z" fill="white"/>
</mask>
<g mask="url(#mask1_50_69)">
<mask id="mask2_50_69" style="mask-type:luminance" maskUnits="userSpaceOnUse" x="66" y="93" width="342" height="219">
<path d="M66.5061 93.1416H407.265V311.915H66.5061V93.1416Z" fill="white"/>
</mask>
<g mask="url(#mask2_50_69)">
<path d="M78.4599 93.3613H395.009V93.3472C401.486 93.3472 406.743 99.1482 406.743 106.315V298.076C406.743 305.243 401.486 311.044 395.009 311.044H78.4599C71.9835 311.044 66.7259 305.243 66.7259 298.076V106.315C66.7259 99.1633 71.9683 93.3613 78.4599 93.3613Z" fill="white"/>
<path d="M66.9316 106.315C66.9316 99.2955 72.1004 93.567 78.4599 93.567H395.009C401.369 93.567 406.538 99.2804 406.538 106.315V298.062C406.538 305.097 401.369 310.809 395.009 310.809H78.4599C72.1004 310.809 66.9316 305.097 66.9316 298.062V106.315ZM78.4599 311.249H395.009V311.234C401.604 311.234 406.963 305.331 406.963 298.062V106.315C406.963 99.0606 401.604 93.1416 395.009 93.1416H78.4599C71.8655 93.1416 66.5061 99.0606 66.5061 106.315V298.076C66.5061 305.33 71.8655 311.249 78.4599 311.249Z" fill="#E4EBE4"/>
<path d="M363.566 160.273H250.554C248.511 160.273 246.853 161.93 246.853 163.974V235.042C246.853 237.085 248.511 238.743 250.554 238.743H363.566C365.61 238.743 367.267 237.085 367.267 235.042V163.974C367.267 161.93 365.61 160.273 363.566 160.273Z" fill="#F6F9F6"/>
<path d="M271.077 191.936C271.203 191.889 271.329 191.873 271.471 191.873L271.455 191.858C271.502 191.858 271.597 191.858 271.597 191.858H279.652C279.826 191.858 279.983 191.873 280.125 191.92C280.267 191.968 280.408 192.047 280.534 192.157C280.644 192.267 280.755 192.393 280.819 192.535C280.897 192.677 280.945 192.835 280.945 192.961V197.548C280.913 197.863 280.771 198.163 280.519 198.384C280.282 198.588 279.999 198.699 279.683 198.699C279.652 198.699 279.605 198.699 279.605 198.699H271.55C271.392 198.715 271.234 198.699 271.077 198.652C270.935 198.604 270.793 198.525 270.667 198.415C270.558 198.305 270.462 198.179 270.383 198.037C270.304 197.88 270.257 197.737 270.257 197.611V193.008C270.273 192.851 270.304 192.694 270.383 192.551C270.447 192.409 270.541 192.283 270.667 192.173C270.777 192.063 270.919 191.984 271.077 191.936ZM270.683 199.881C270.935 199.959 271.203 200.007 271.44 200.007H271.471C271.534 200.007 271.644 200.007 271.644 200.007H279.636C280.282 200.023 280.929 199.802 281.418 199.377C281.906 198.935 282.221 198.336 282.285 197.611V192.929C282.268 192.599 282.175 192.267 282.033 191.968C281.89 191.668 281.686 191.4 281.434 191.179C281.182 190.958 280.882 190.801 280.567 190.691C280.251 190.581 279.919 190.549 279.636 190.58H271.676C271.329 190.549 271.013 190.581 270.683 190.691C270.367 190.801 270.068 190.958 269.815 191.179C269.563 191.4 269.359 191.668 269.217 191.968C269.074 192.267 268.981 192.583 268.965 192.961V197.643C268.981 197.973 269.074 198.305 269.217 198.604C269.359 198.904 269.563 199.172 269.815 199.393C270.068 199.614 270.367 199.771 270.683 199.881Z" fill="#1C2E43"/>
<path d="M277.02 190.581H274.167V189.682L274.229 189.571C274.245 189.571 274.355 189.571 274.355 189.571H276.846C276.863 189.571 276.988 189.588 276.988 189.588L277.02 189.682V190.581ZM273.52 191.889H277.681L277.714 191.873C278.06 191.873 278.36 191.59 278.36 191.227V189.682C278.36 189.493 278.327 189.288 278.249 189.099C278.17 188.925 278.044 188.752 277.902 188.626C277.745 188.484 277.571 188.39 277.382 188.326C277.192 188.263 277.02 188.248 276.83 188.264H274.434C274.244 188.248 274.041 188.263 273.851 188.326C273.662 188.39 273.473 188.484 273.331 188.626C273.174 188.768 273.063 188.925 272.984 189.115C272.906 189.288 272.873 189.493 272.873 189.682V191.243C272.873 191.59 273.157 191.889 273.52 191.889Z" fill="#1C2E43"/>
<path d="M269.596 195.704H281.607C281.954 195.704 282.253 195.405 282.253 195.058C282.253 194.711 281.97 194.412 281.607 194.412H269.596C269.249 194.412 268.949 194.711 268.949 195.058C268.949 195.405 269.233 195.704 269.596 195.704Z" fill="#1C2E43"/>
<path d="M266.362 181.643C266.362 180.256 267.498 179.121 268.885 179.121C270.272 179.121 271.407 180.256 271.407 181.643C271.407 183.03 270.272 184.165 268.885 184.165C267.498 184.165 266.362 183.03 266.362 181.643ZM265.07 181.643C265.07 183.74 266.773 185.458 268.885 185.458C270.982 185.458 272.7 183.74 272.7 181.643C272.7 179.546 270.982 177.828 268.885 177.828C266.788 177.828 265.07 179.546 265.07 181.643Z" fill="#1C2E43"/>
<path d="M260.075 196.398C260.075 196.744 260.358 197.044 260.721 197.044H260.736C261.083 197.044 261.382 196.761 261.382 196.398V195.357C261.382 193.371 262.155 191.495 263.574 190.076C264.977 188.658 266.852 187.886 268.855 187.886H268.965C269.658 187.87 270.336 187.979 270.998 188.169C271.345 188.279 271.708 188.075 271.803 187.728C271.913 187.382 271.708 187.019 271.361 186.924C270.589 186.687 269.784 186.53 268.965 186.577H268.855C266.506 186.577 264.299 187.476 262.643 189.147C260.988 190.817 260.075 193.008 260.075 195.357V196.398Z" fill="#1C2E43"/>
<path d="M247.105 163.974C247.105 162.079 248.646 160.523 250.556 160.523H363.568C365.462 160.523 367.018 162.064 367.018 163.974V235.042C367.018 236.936 365.477 238.493 363.568 238.493H250.556C248.661 238.493 247.105 236.951 247.105 235.042V163.974ZM250.556 238.992H363.568C365.741 238.992 367.519 237.215 367.519 235.042V163.974C367.519 161.8 365.741 160.024 363.568 160.024H250.556C248.382 160.024 246.604 161.8 246.604 163.974V235.042C246.604 237.215 248.382 238.992 250.556 238.992Z" fill="#14A800"/>
<path d="M355.666 177.794C355.666 174.533 353.022 171.875 349.747 171.875C346.486 171.875 343.828 174.518 343.828 177.794C343.828 181.054 346.471 183.713 349.747 183.713C353.007 183.713 355.666 181.069 355.666 177.794Z" fill="#14A800"/>
<path d="M347.162 177.794C347.162 176.369 348.322 175.209 349.747 175.209C351.171 175.209 352.332 176.369 352.332 177.794C352.332 179.218 351.171 180.379 349.747 180.379C348.322 180.379 347.162 179.218 347.162 177.794ZM346.413 177.794C346.413 179.63 347.911 181.128 349.747 181.128C351.583 181.128 353.081 179.63 353.081 177.794C353.081 175.958 351.583 174.46 349.747 174.46C347.911 174.46 346.413 175.958 346.413 177.794Z" fill="white"/>
<path d="M289.826 211.731V212.771H288.664V216.122C288.664 216.824 289.003 216.909 289.826 216.86V217.901C289.572 217.961 289.293 217.998 288.955 217.998C287.938 217.998 287.382 217.538 287.382 216.231V212.771H286.487V211.731H287.382V209.783H288.664V211.731H289.826ZM281.741 212.529C282.068 212.045 282.709 211.561 283.774 211.561C284.923 211.561 285.83 212.227 285.83 213.642V217.913H284.548V214.005C284.548 213.17 284.197 212.638 283.326 212.638C282.346 212.638 281.717 213.231 281.717 214.15V217.913H280.447V211.731H281.717V212.529H281.741ZM278.305 214.211C278.305 213.255 277.628 212.566 276.599 212.566C275.571 212.566 274.833 213.255 274.833 214.211H278.305ZM274.833 215.155C274.833 216.195 275.499 217.054 276.624 217.054C277.676 217.054 278.1 216.401 278.209 216.026H279.479C279.164 217.199 278.245 218.094 276.66 218.094C274.736 218.094 273.563 216.764 273.563 214.828C273.563 212.82 274.736 211.561 276.599 211.561C278.596 211.561 279.576 212.953 279.576 215.155H274.833ZM271.328 217.913V211.731H272.598V217.913H271.328ZM272.683 210.013C272.683 210.448 272.332 210.69 271.957 210.69C271.606 210.69 271.243 210.448 271.243 210.013C271.243 209.577 271.606 209.347 271.957 209.347C272.332 209.347 272.683 209.577 272.683 210.013ZM268.822 217.913V209.263H270.105V217.913H268.822ZM267.866 212.239H266.426C266.269 211.368 265.7 210.315 264.103 210.315C262.24 210.315 261.502 211.876 261.502 213.582C261.502 215.3 262.24 216.86 264.103 216.86C265.712 216.86 266.329 215.808 266.426 214.755H267.866C267.672 216.703 266.341 218.094 264.14 218.094C261.647 218.094 260.075 216.195 260.075 213.582C260.075 210.981 261.647 209.081 264.14 209.081C266.329 209.081 267.66 210.473 267.866 212.239Z" fill="#1C2E43"/>
<path d="M222.917 160.523H109.905C107.998 160.523 106.454 162.067 106.454 163.974V235.042C106.454 236.948 107.998 238.493 109.905 238.493H222.917C224.823 238.493 226.368 236.948 226.368 235.042V163.974C226.368 162.067 224.823 160.523 222.917 160.523Z" fill="white"/>
<path d="M139.076 198.699H127.647L129.224 191.874H140.653L139.076 198.699ZM126.828 200.008H139.596C139.896 200.008 140.164 199.803 140.227 199.504L142.102 191.385C142.15 191.196 142.086 190.991 141.976 190.834C141.867 190.676 141.677 190.582 141.472 190.582H128.704C128.404 190.582 128.136 190.786 128.073 191.086L126.198 199.204C126.15 199.394 126.214 199.599 126.324 199.756C126.433 199.913 126.623 200.008 126.828 200.008Z" fill="#1C2E43"/>
<path d="M134.742 195.295C134.742 195.625 134.474 195.878 134.158 195.878C133.842 195.878 133.574 195.625 133.574 195.295C133.574 194.964 133.842 194.711 134.158 194.711C134.474 194.711 134.742 194.964 134.742 195.295Z" fill="#1C2E43"/>
<path d="M134.016 195.294C134.016 195.215 134.079 195.152 134.158 195.152C134.237 195.152 134.3 195.215 134.3 195.294C134.3 195.451 134.016 195.451 134.016 195.294ZM133.149 195.31C133.149 195.861 133.59 196.319 134.158 196.319C134.709 196.319 135.167 195.861 135.167 195.31C135.167 194.758 134.709 194.301 134.158 194.301C133.607 194.301 133.149 194.758 133.149 195.31Z" fill="#1C2E43"/>
<path d="M124.069 200.008H128.058C128.404 200.008 128.704 199.708 128.704 199.362C128.704 199.015 128.421 198.715 128.058 198.715H124.069C123.722 198.715 123.423 199.015 123.423 199.362C123.423 199.708 123.706 200.008 124.069 200.008Z" fill="#1C2E43"/>
<path d="M126.244 181.643C126.244 180.256 127.379 179.121 128.766 179.121C130.154 179.121 131.289 180.256 131.289 181.643C131.289 183.03 130.154 184.165 128.766 184.165C127.379 184.165 126.244 183.03 126.244 181.643ZM124.951 181.643C124.951 183.74 126.654 185.458 128.766 185.458C130.863 185.458 132.581 183.74 132.581 181.643C132.581 179.546 130.863 177.828 128.766 177.828C126.669 177.828 124.951 179.546 124.951 181.643Z" fill="#1C2E43"/>
<path d="M119.94 196.414C119.94 196.761 120.223 197.06 120.586 197.06L120.601 197.045C120.948 197.045 121.247 196.761 121.247 196.398V195.357C121.247 193.371 122.021 191.495 123.439 190.076C124.843 188.658 126.718 187.886 128.72 187.886H128.83C130.296 187.917 131.668 188.295 132.882 189.083C133.181 189.288 133.59 189.194 133.78 188.895C133.985 188.595 133.89 188.185 133.59 187.996C132.172 187.081 130.533 186.593 128.846 186.593H128.72C126.371 186.593 124.164 187.508 122.509 189.163C120.853 190.819 119.94 193.024 119.94 195.373V196.414Z" fill="#1C2E43"/>
<path d="M106.938 163.989C106.938 162.343 108.274 161.022 109.905 161.022H222.917C224.562 161.022 225.884 162.359 225.884 163.989V235.056C225.884 236.701 224.547 238.023 222.917 238.023H109.905C108.259 238.023 106.938 236.686 106.938 235.056V163.989ZM109.905 238.992H222.917C225.09 238.992 226.868 237.215 226.868 235.042V163.974C226.868 161.8 225.09 160.024 222.917 160.024H109.905C107.731 160.024 105.954 161.8 105.954 163.974V235.042C105.954 237.215 107.731 238.992 109.905 238.992Z" fill="#D5E0D5"/>
<path d="M204.161 177.794C204.161 175.077 206.379 172.859 209.096 172.859C211.813 172.859 214.031 175.077 214.031 177.794C214.031 180.511 211.813 182.729 209.096 182.729C206.379 182.729 204.161 180.511 204.161 177.794ZM203.177 177.794C203.177 181.054 205.835 183.713 209.096 183.713C212.356 183.713 215.015 181.054 215.015 177.794C215.015 174.533 212.356 171.875 209.096 171.875C205.835 171.875 203.177 174.533 203.177 177.794Z" fill="#BECCBE"/>
<path d="M175.13 212.811C175.468 212.015 175.993 211.468 176.83 211.468C177.055 211.468 177.217 211.48 177.405 211.505V212.736H177.379C176.117 212.524 175.106 213.369 175.106 214.724V217.968H173.793V211.617H175.106V212.811H175.13ZM171.582 214.165C171.582 213.183 170.882 212.475 169.82 212.475C168.758 212.475 167.996 213.183 167.996 214.165H171.582ZM167.996 215.134C167.996 216.203 168.683 217.086 169.845 217.086C170.932 217.086 171.37 216.415 171.483 216.03H172.794C172.47 217.235 171.52 218.155 169.883 218.155C167.895 218.155 166.685 216.788 166.685 214.799C166.685 212.735 167.895 211.442 169.82 211.442C171.882 211.442 172.894 212.872 172.894 215.134H167.996ZM166.155 213.942H164.843C164.792 213.295 164.38 212.512 163.256 212.512C161.968 212.512 161.42 213.605 161.42 214.799C161.42 215.992 161.956 217.086 163.256 217.086C164.38 217.086 164.792 216.316 164.843 215.607H166.155C166.056 217.074 164.917 218.155 163.256 218.155C161.344 218.155 160.107 216.788 160.107 214.799C160.107 212.81 161.344 211.442 163.244 211.442C164.905 211.442 165.993 212.5 166.155 213.942ZM155.022 212.438C155.36 211.94 156.021 211.442 157.121 211.442C158.308 211.442 159.245 212.127 159.245 213.581V217.968H157.921V213.954C157.921 213.096 157.559 212.549 156.659 212.549C155.647 212.549 154.997 213.158 154.997 214.103V217.968H153.685V211.617H154.997V212.438H155.022ZM148.095 216.216C148.095 216.8 148.446 217.123 149.158 217.123C150.244 217.123 150.993 216.588 150.993 215.557V214.6C150.781 214.749 150.269 214.898 149.657 215.022C148.57 215.258 148.095 215.57 148.095 216.216ZM149.407 214.202C150.394 214.015 150.993 213.891 150.993 213.282C150.993 212.823 150.719 212.475 149.844 212.475C148.795 212.475 148.408 212.797 148.345 213.618H147.071C147.133 212.4 147.92 211.442 149.844 211.442C151.256 211.442 152.306 211.977 152.306 213.667V216.688C152.306 217.136 152.406 217.371 152.918 217.322V217.943C152.619 218.055 152.406 218.08 152.156 218.08C151.456 218.08 151.132 217.831 151.007 217.21H150.981C150.581 217.77 149.857 218.155 148.87 218.155C147.571 218.155 146.77 217.409 146.77 216.34C146.77 214.948 147.808 214.512 149.407 214.202ZM144.535 217.968V209.081H145.859V217.968H144.535ZM142.298 214.165C142.298 213.183 141.598 212.475 140.537 212.475C139.475 212.475 138.712 213.183 138.712 214.165H142.298ZM138.712 215.134C138.712 216.203 139.4 217.086 140.562 217.086C141.649 217.086 142.085 216.415 142.198 216.03H143.51C143.185 217.235 142.236 218.155 140.599 218.155C138.612 218.155 137.4 216.788 137.4 214.799C137.4 212.735 138.612 211.442 140.537 211.442C142.598 211.442 143.611 212.872 143.611 215.134H138.712ZM135.526 214.165C135.526 213.183 134.826 212.475 133.765 212.475C132.703 212.475 131.94 213.183 131.94 214.165H135.526ZM131.94 215.134C131.94 216.203 132.628 217.086 133.79 217.086C134.877 217.086 135.313 216.415 135.426 216.03H136.738C136.413 217.235 135.465 218.155 133.827 218.155C131.84 218.155 130.628 216.788 130.628 214.799C130.628 212.735 131.84 211.442 133.765 211.442C135.827 211.442 136.839 212.872 136.839 215.134H131.94ZM128.057 212.811C128.394 212.015 128.919 211.468 129.755 211.468C129.98 211.468 130.143 211.48 130.331 211.505V212.736H130.306C129.044 212.524 128.031 213.369 128.031 214.724V217.968H126.72V211.617H128.031V212.811H128.057ZM121.426 210.336V212.922H125.286V214.19H121.426V217.968H119.939V209.081H126.186V210.336H121.426Z" fill="#1C2E43"/>
<path d="M307.519 261.506H165.245C159.156 261.506 154.216 266.474 154.216 272.596C154.216 278.719 159.156 283.686 165.245 283.686H307.519C313.607 283.686 318.547 278.719 318.547 272.596C318.547 266.474 313.607 261.506 307.519 261.506Z" fill="#108A00"/>
<path d="M267.131 271.337V272.031H266.281V274.278C266.281 274.746 266.526 274.806 267.131 274.776V275.47C266.935 275.5 266.739 275.53 266.494 275.53C265.758 275.53 265.35 275.229 265.35 274.354V272.031H264.695V271.337H265.35V270.024H266.281V271.337H267.131ZM261.084 271.864C261.313 271.548 261.787 271.216 262.555 271.216L262.571 271.246C263.405 271.246 264.058 271.683 264.058 272.634V275.5H263.127V272.876C263.127 272.317 262.882 271.955 262.245 271.955C261.526 271.955 261.067 272.348 261.067 272.966V275.485H260.153V271.337H261.067V271.864H261.084ZM258.158 273.855V271.337L258.141 271.307H259.057V275.454H258.141V274.927H258.125C257.896 275.244 257.422 275.575 256.654 275.575C255.82 275.575 255.167 275.139 255.167 274.188V271.322H256.099V273.946C256.099 274.505 256.344 274.867 256.981 274.867C257.7 274.867 258.158 274.474 258.158 273.855ZM253.467 273.418C253.467 274.278 253.01 274.912 252.128 274.912C251.245 274.912 250.787 274.278 250.787 273.418C250.787 272.558 251.245 271.925 252.128 271.925C253.01 271.925 253.467 272.558 253.467 273.418ZM249.871 273.418C249.871 274.7 250.722 275.606 252.128 275.606C253.533 275.606 254.383 274.7 254.383 273.418C254.383 272.136 253.533 271.231 252.128 271.231C250.722 271.231 249.871 272.136 249.871 273.418ZM249.316 272.86H248.4C248.368 272.438 248.074 271.925 247.289 271.925C246.39 271.925 245.998 272.634 245.998 273.418C245.998 274.202 246.374 274.912 247.289 274.912C248.074 274.912 248.368 274.414 248.4 273.946H249.316C249.234 274.897 248.45 275.606 247.273 275.606C245.933 275.606 245.066 274.715 245.066 273.418C245.066 272.12 245.933 271.231 247.273 271.231C248.434 271.231 249.202 271.925 249.316 272.86ZM244.511 272.86H243.595C243.563 272.438 243.269 271.925 242.484 271.925C241.585 271.925 241.193 272.634 241.193 273.418C241.193 274.202 241.569 274.912 242.484 274.912C243.269 274.912 243.563 274.414 243.595 273.946H244.511C244.429 274.897 243.644 275.606 242.467 275.606C241.127 275.606 240.261 274.715 240.261 273.418C240.261 272.12 241.127 271.231 242.467 271.231C243.628 271.231 244.397 271.925 244.511 272.86ZM236.388 274.354C236.388 274.731 236.632 274.942 237.139 274.942C237.907 274.942 238.431 274.594 238.431 273.916V273.298C238.267 273.389 237.908 273.494 237.483 273.569C236.715 273.736 236.388 273.931 236.388 274.354ZM237.32 273.041C238.006 272.92 238.431 272.83 238.431 272.438H238.447C238.447 272.137 238.267 271.91 237.646 271.91C236.894 271.91 236.633 272.12 236.584 272.649H235.684C235.717 271.849 236.273 271.231 237.63 271.231C238.627 271.231 239.362 271.578 239.362 272.679V274.655C239.362 274.941 239.428 275.093 239.788 275.062V275.47C239.575 275.545 239.428 275.56 239.248 275.56C238.758 275.56 238.528 275.395 238.447 274.988H238.431C238.152 275.35 237.63 275.606 236.943 275.606C236.028 275.606 235.473 275.123 235.473 274.429C235.473 273.524 236.191 273.237 237.32 273.041ZM232.138 273.011C232.138 272.378 231.648 271.91 230.895 271.91C230.159 271.91 229.621 272.378 229.621 273.011H232.138ZM229.605 273.645C229.605 274.338 230.095 274.912 230.913 274.912H230.929C231.681 274.912 231.991 274.474 232.073 274.217H232.987C232.759 275.002 232.089 275.606 230.945 275.606C229.539 275.606 228.69 274.761 228.69 273.418C228.69 272.075 229.538 271.231 230.895 271.231C232.334 271.231 233.053 272.167 233.053 273.645H229.605ZM228.117 271.352V272.046H227.267V274.293C227.267 274.761 227.512 274.821 228.117 274.791V275.485C227.92 275.515 227.725 275.545 227.48 275.545C226.744 275.545 226.335 275.244 226.335 274.369V272.046H225.682V271.352H226.335V270.04H227.267V271.352H228.117ZM221.939 274.354C221.939 274.731 222.184 274.942 222.691 274.942C223.459 274.942 223.982 274.594 223.982 273.916V273.298C223.819 273.389 223.459 273.494 223.034 273.569C222.265 273.736 221.939 273.931 221.939 274.354ZM222.87 273.041C223.557 272.92 223.982 272.83 223.982 272.438H223.999C223.999 272.137 223.819 271.91 223.198 271.91C222.446 271.91 222.185 272.12 222.135 272.649H221.236C221.268 271.849 221.824 271.231 223.181 271.231C224.178 271.231 224.914 271.578 224.914 272.679V274.655C224.914 274.941 224.978 275.093 225.338 275.062V275.47C225.126 275.545 224.978 275.56 224.799 275.56C224.309 275.56 224.08 275.395 223.999 274.988H223.982C223.704 275.35 223.181 275.606 222.494 275.606C221.579 275.606 221.023 275.123 221.023 274.429C221.023 273.524 221.742 273.237 222.87 273.041ZM219.536 273.011C219.536 272.378 219.046 271.91 218.294 271.91C217.558 271.91 217.02 272.378 217.02 273.011H219.536ZM217.003 273.645C217.003 274.338 217.493 274.912 218.31 274.912H218.327C219.079 274.912 219.389 274.474 219.471 274.217H220.386C220.157 275.002 219.488 275.606 218.344 275.606C216.938 275.606 216.087 274.761 216.087 273.418C216.087 272.075 216.937 271.231 218.294 271.231C219.733 271.231 220.452 272.167 220.452 273.645H217.003ZM214.11 272.121C214.339 271.608 214.714 271.246 215.303 271.246C215.466 271.246 215.581 271.261 215.712 271.277V272.076H215.695C214.813 271.94 214.094 272.483 214.094 273.374V275.485H213.179V271.337H214.094V272.121H214.11ZM212.313 271.684H211.266V271.699C211.152 271.125 210.743 270.417 209.583 270.417C208.226 270.417 207.687 271.442 207.687 272.603C207.687 273.765 208.226 274.806 209.583 274.806C210.743 274.806 211.201 274.097 211.266 273.389H212.313C212.166 274.686 211.201 275.621 209.599 275.621C207.784 275.621 206.641 274.339 206.641 272.589C206.641 270.839 207.784 269.572 209.599 269.572C211.201 269.572 212.166 270.507 212.313 271.684Z" fill="white"/>
<path d="M286.723 126.419C288.19 126.419 289.157 127.402 289.157 128.766H284.203C284.203 127.402 285.256 126.419 286.723 126.419ZM286.758 132.822C285.153 132.822 284.203 131.597 284.203 130.113H290.97C290.97 126.972 289.571 124.987 286.723 124.987C284.065 124.987 282.391 126.781 282.391 129.647C282.391 132.408 284.065 134.307 286.809 134.307C289.07 134.307 290.383 133.03 290.832 131.355H289.019C288.864 131.891 288.259 132.822 286.758 132.822Z" fill="#1C2E43"/>
<path d="M277.446 126.419C278.913 126.419 279.88 127.402 279.88 128.766H274.926C274.926 127.402 275.979 126.419 277.446 126.419ZM277.481 132.822C275.876 132.822 274.926 131.597 274.926 130.113H281.692C281.692 126.972 280.294 124.987 277.446 124.987C274.788 124.987 273.114 126.781 273.114 129.647C273.114 132.408 274.788 134.307 277.532 134.307C279.793 134.307 281.105 133.03 281.554 131.355H279.742C279.587 131.891 278.982 132.822 277.481 132.822Z" fill="#1C2E43"/>
<path d="M271.952 125.021C270.795 125.021 270.071 125.78 269.605 126.885H269.57V125.228H267.758V134.048H269.57V129.544C269.57 127.662 270.968 126.488 272.711 126.781H272.746V125.072C272.487 125.038 272.262 125.021 271.952 125.021Z" fill="#1C2E43"/>
<path d="M266.824 121.707C266.461 121.639 266.064 121.586 265.615 121.586C264.166 121.586 263.371 122.243 263.371 124.107V125.228H262.112V126.713H263.371V134.048H265.201V126.713H266.824V125.228H265.201V124.262C265.201 123.261 265.651 123.14 266.824 123.191V121.707Z" fill="#1C2E43"/>
<path d="M257.501 125.021C256.344 125.021 255.618 125.78 255.153 126.885H255.118V125.228H253.307V134.048H255.118V129.544C255.118 127.662 256.517 126.488 258.26 126.781H258.294V125.072C258.035 125.038 257.811 125.021 257.501 125.021Z" fill="#1C2E43"/>
<path d="M247.695 132.822C249.421 132.822 250.32 131.459 250.32 129.647C250.32 127.817 249.421 126.471 247.695 126.471C245.969 126.471 245.072 127.817 245.072 129.647C245.072 131.459 245.969 132.822 247.695 132.822ZM247.695 134.307C244.934 134.307 243.259 132.391 243.259 129.647C243.259 126.902 244.934 124.987 247.695 124.987C250.457 124.987 252.131 126.902 252.131 129.647C252.131 132.391 250.457 134.307 247.695 134.307Z" fill="#1C2E43"/>
<path d="M242.879 121.707C242.516 121.639 242.119 121.586 241.671 121.586C240.221 121.586 239.427 122.243 239.427 124.107V125.228H238.167V126.713H239.427V134.048H241.257V126.713H242.879V125.228H241.257V124.262C241.257 123.261 241.706 123.14 242.879 123.191V121.707Z" fill="#1C2E43"/>
<path d="M230.931 128.715C229.653 128.422 228.67 128.352 228.67 127.455C228.67 126.834 229.256 126.419 230.344 126.419C231.759 126.419 232.104 127.127 232.225 127.818H233.986C233.865 126.281 232.726 124.987 230.327 124.987C228.118 124.987 226.84 126.143 226.84 127.593C226.84 129.595 228.739 129.871 230.137 130.199C231.432 130.51 232.484 130.596 232.484 131.701C232.484 132.254 231.95 132.875 230.69 132.875C228.826 132.875 228.411 132.064 228.324 131.114H226.564C226.651 132.979 227.876 134.307 230.724 134.307C232.864 134.307 234.314 133.255 234.314 131.563C234.314 129.457 232.553 129.095 230.931 128.715Z" fill="#1C2E43"/>
<path d="M223.648 130.596C223.648 131.908 222.75 132.754 221.352 132.754C220.109 132.754 219.608 131.994 219.608 130.803V125.228H217.779V131.321C217.779 133.341 219.074 134.29 220.713 134.29C222.232 134.29 223.147 133.6 223.612 132.909H223.648V134.048H225.459V125.228H223.648V130.596Z" fill="#1C2E43"/>
<path d="M210.066 124.987C208.546 124.987 207.632 125.676 207.166 126.367H207.132V125.228H205.319V134.048H207.132V128.681C207.132 127.369 208.029 126.523 209.428 126.523C210.671 126.523 211.171 127.282 211.171 128.473V134.048H213.001V127.956C213.001 125.937 211.705 124.987 210.066 124.987Z" fill="#1C2E43"/>
<path d="M201.792 134.048H203.603V125.228H201.792V134.048ZM202.689 123.744C203.224 123.744 203.724 123.398 203.724 122.777C203.724 122.156 203.224 121.828 202.689 121.828C202.189 121.828 201.671 122.156 201.671 122.777C201.671 123.398 202.189 123.744 202.689 123.744Z" fill="#1C2E43"/>
<path d="M196.151 132.822C197.877 132.822 198.774 131.459 198.774 129.647C198.774 127.817 197.877 126.471 196.151 126.471C194.425 126.471 193.527 127.817 193.527 129.647C193.527 131.459 194.425 132.822 196.151 132.822ZM196.151 134.307C193.39 134.307 191.715 132.391 191.715 129.647C191.715 126.902 193.39 124.987 196.151 124.987C198.912 124.987 200.587 126.902 200.587 129.647C200.587 132.391 198.912 134.307 196.151 134.307Z" fill="#1C2E43"/>
<path d="M190.396 121.707H188.36V130.182C188.36 131.563 188.084 132.547 186.547 132.547C184.994 132.547 184.753 131.563 184.753 130.182V129.612H182.802V130.182C182.802 132.305 183.631 134.307 186.6 134.307C189.569 134.307 190.396 132.305 190.396 130.182V121.707Z" fill="#1C2E43"/>
</g>
<mask id="mask3_50_69" style="mask-type:alpha" maskUnits="userSpaceOnUse" x="281" y="192" width="140" height="97">
<mask id="mask4_50_69" style="mask-type:luminance" maskUnits="userSpaceOnUse" x="17" y="12" width="506" height="371">
<path d="M17.3582 12.9919H522.448V382.991H17.3582V12.9919Z" fill="white"/>
</mask>
<g mask="url(#mask4_50_69)">
<path d="M282.821 258.581C281.837 259.161 281.312 260.269 281.681 261.389C282.184 262.716 283.576 263.407 284.807 262.845L288.597 261.212C288.376 262.242 288.346 263.383 288.62 264.446C289.656 268.794 294.423 270.959 298.438 268.944C301.013 267.627 304.188 267.693 306.764 269.212L307.527 269.661L313.445 259.62L306.332 256.202C304.94 255.51 303.435 255.011 301.875 254.606C296.792 253.415 291.38 254.091 286.74 256.511L282.821 258.581Z" fill="url(#paint0_radial_50_69)"/>
<path d="M293.301 254.321L289.816 258.709C289.213 259.514 288.858 260.336 288.598 261.213L284.807 262.845C283.48 263.351 282.089 262.661 281.681 261.389C281.312 260.27 281.836 259.162 282.821 258.582L286.74 256.511C288.804 255.408 291.042 254.664 293.301 254.321Z" fill="url(#paint1_radial_50_69)"/>
<path d="M393.83 231.852L394.977 240.64L376.425 239.36L373.553 230.086C372.903 228.15 371.602 226.393 369.906 225.124C364.952 221.525 362.072 215.369 363.19 209.016C364.716 200.17 373.236 194.152 382.114 195.78C390.637 197.222 396.775 205.709 395.336 214.323C395.174 214.897 395.12 215.459 394.958 216.033C393.602 221.186 393.164 226.577 393.83 231.852Z" fill="url(#paint2_radial_50_69)"/>
<mask id="mask5_50_69" style="mask-type:alpha" maskUnits="userSpaceOnUse" x="362" y="195" width="34" height="46">
<path d="M393.83 231.852L394.977 240.64L376.425 239.36L373.553 230.086C372.903 228.15 371.602 226.393 369.906 225.124C364.952 221.525 362.072 215.369 363.19 209.016C364.716 200.17 373.236 194.152 382.114 195.78C390.637 197.222 396.775 205.709 395.336 214.323C395.174 214.897 395.12 215.459 394.958 216.033C393.602 221.186 393.164 226.577 393.83 231.852Z" fill="#FF0000"/>
</mask>
<g mask="url(#mask5_50_69)">
<path d="M400.636 222.162C396.774 225.065 388.043 225.247 384.969 224.679C379.619 223.683 375.193 219.805 373.852 214.489C372.715 210.043 370.687 204.59 365.208 200.723C368.8 196.671 380.409 188.982 386.213 190.043C394.736 191.485 403.901 206.382 402.462 214.996C402.299 215.57 402.247 216.132 402.084 216.706C401.595 218.427 400.892 220.353 400.636 222.162Z" fill="url(#paint3_radial_50_69)"/>
</g>
<path d="M406.971 203.063C407.668 209.693 402.845 215.634 396.199 216.333C389.554 217.031 383.601 212.223 382.904 205.592C382.207 198.962 387.03 193.021 393.676 192.322C400.322 191.624 406.274 196.432 406.971 203.063Z" fill="url(#paint4_radial_50_69)"/>
<path d="M370.056 225.496C371.851 226.643 373.722 227.449 375.889 227.889L378.768 236.161L375.188 236.092L373.471 230.37C372.931 228.423 371.63 226.667 370.056 225.496Z" fill="url(#paint5_radial_50_69)"/>
<path d="M417.266 285.892L351.154 285.621C351.154 285.621 347.54 284.135 347.525 269.843C347.513 258.872 349.443 245.637 350.439 243.144C352.25 238.611 360.652 233.066 367.756 231.848C372.419 230.962 377.192 231.516 381.521 233.177L384.852 234.506C387.405 235.503 390.402 235.17 392.622 233.509C395.176 231.627 398.173 230.631 401.392 230.52C408.275 230.298 414.491 234.617 416.6 241.151C420.152 251.671 421.04 262.967 419.264 274.042L417.266 285.892Z" fill="url(#paint6_radial_50_69)"/>
<mask id="mask6_50_69" style="mask-type:alpha" maskUnits="userSpaceOnUse" x="346" y="230" width="74" height="56">
<path d="M416.637 285.892L350.525 285.621C350.525 285.621 346.912 284.135 346.896 269.843C346.884 258.872 348.815 245.637 349.811 243.144C351.622 238.611 360.023 233.066 367.128 231.848C371.791 230.962 376.563 231.516 380.893 233.177L384.223 234.506C386.777 235.503 389.774 235.17 391.994 233.509C394.547 231.627 397.544 230.631 400.764 230.52C407.646 230.298 413.863 234.617 415.972 241.151C419.524 251.671 420.412 262.967 418.636 274.042L416.637 285.892Z" fill="#FF0000"/>
</mask>
<g mask="url(#mask6_50_69)">
<path d="M375.693 259.677L397.1 260.553C397.1 260.553 415.473 288.569 414.834 292.419C414.194 296.269 362.169 315.957 362.169 315.957L354.221 284.846C360.955 280.466 366.639 274.603 370.811 267.68L375.693 259.677Z" fill="url(#paint7_radial_50_69)"/>
</g>
<path d="M343.547 265.26C354.218 268.392 342.895 289.816 331.428 284.301L306.998 273.279C302.291 271.253 300.459 265.497 302.975 261.053C304.998 257.478 309.103 255.847 312.968 256.887L323.188 259.738C323.188 259.738 337.399 263.455 343.547 265.26Z" fill="url(#paint8_radial_50_69)"/>
<path d="M302.167 262.254C302.289 261.813 302.508 261.427 302.782 260.944C304.75 257.466 308.91 255.738 312.817 256.929L340.068 264.229L334.77 274.63L302.167 262.254Z" fill="url(#paint9_radial_50_69)"/>
<path d="M374.312 261.621C368.988 275.487 354.232 284.846 354.232 284.846C354.121 284.842 346.864 288.424 342.871 288.26C334.165 287.904 326.906 281.745 324.981 273.515C329.235 270.021 342.595 251.562 342.595 251.562L349.436 241.867C353.673 236.055 360.052 232.215 367.2 231.288C371.895 230.593 376.642 231.342 380.899 233.178C380.899 233.178 378.46 250.818 374.312 261.621Z" fill="url(#paint10_radial_50_69)"/>
<path d="M417.344 285.892H357.066C356.956 285.892 344.078 253.111 344.078 253.111L350.517 243.144C354.514 237.164 360.73 233.066 367.835 231.848C372.497 230.962 377.27 231.516 381.599 233.177L384.93 234.506C387.484 235.503 390.48 235.17 392.7 233.509C395.254 231.627 398.251 230.631 401.47 230.52C408.353 230.298 414.569 234.617 416.679 241.151C420.23 251.671 421.119 262.967 419.342 274.042L417.344 285.892Z" fill="url(#paint11_radial_50_69)"/>
<path d="M354.232 284.846C354.121 284.842 342.595 251.562 342.595 251.562L349.436 241.867C353.673 236.055 360.052 232.215 367.2 231.288C371.895 230.593 376.641 231.342 380.899 233.178L384.173 234.643C385.471 235.212 383.673 251.474 373.925 264.588C361.68 281.059 354.232 284.846 354.232 284.846Z" fill="url(#paint12_radial_50_69)"/>
<path d="M408.977 232.523C412.197 234.406 414.75 237.396 415.971 241.051C419.412 251.682 420.411 262.978 418.635 274.053L416.637 285.902H407.534L407.646 285.681L409.532 274.053V273.942C410.198 269.623 410.42 265.082 410.087 260.652L409.31 250.021C409.088 247.252 408.977 244.484 408.977 241.716V232.523Z" fill="url(#paint13_radial_50_69)"/>
</g>
</mask>
<g mask="url(#mask3_50_69)">
<g opacity="0.47">
<path d="M405.753 91.6294V311.915H64.4897V91.6294H405.753Z" fill="#D4DFD4"/>
</g>
</g>
<mask id="mask7_50_69" style="mask-type:luminance" maskUnits="userSpaceOnUse" x="10" y="14" width="506" height="370">
<path d="M10.049 14H515.139V383.999H10.049V14Z" fill="white"/>
</mask>
<g mask="url(#mask7_50_69)">
<path d="M313.798 196.709C312.363 195.571 310.401 195.426 308.939 196.625C307.244 198.144 307.013 200.626 308.567 202.144L313.198 206.872C311.53 207.135 309.805 207.75 308.372 208.773C302.465 212.836 301.979 221.219 307.313 226.063C310.771 229.156 312.506 233.944 311.722 238.676L311.49 240.078L329.934 243.132L330.94 230.515C331.171 228.033 331.049 225.492 330.753 222.923C329.599 214.629 325.462 206.922 319.161 201.378L313.798 196.709Z" fill="url(#paint14_radial_50_69)"/>
<path d="M326.227 209.93L317.648 207.249C316.096 206.811 314.661 206.755 313.198 206.873L308.567 202.144C307.042 200.451 307.272 197.969 308.938 196.624C310.4 195.426 312.361 195.57 313.797 196.709L319.161 201.377C322.004 203.829 324.408 206.747 326.227 209.93Z" fill="url(#paint15_radial_50_69)"/>
<path d="M426.8 243.154L426.908 257.368L397.623 251.705L394.863 236.378C394.208 233.169 392.48 230.118 390.028 227.766C382.844 221.068 379.462 210.705 382.484 200.809C386.642 187.024 401.383 179.109 415.199 183.436C428.485 187.399 436.598 202.109 432.624 215.541C432.253 216.424 432.058 217.308 431.687 218.19C428.521 226.129 426.771 234.626 426.8 243.154Z" fill="url(#paint16_radial_50_69)"/>
<mask id="mask8_50_69" style="mask-type:alpha" maskUnits="userSpaceOnUse" x="355" y="196" width="34" height="46">
<path d="M386.521 232.86L387.668 241.647L369.116 240.368L366.244 231.094C365.594 229.158 364.293 227.401 362.597 226.132C357.643 222.532 354.763 216.377 355.881 210.023C357.406 201.178 365.927 195.159 374.805 196.788C383.328 198.23 389.466 206.717 388.027 215.33C387.864 215.905 387.811 216.466 387.648 217.041C386.292 222.194 385.855 227.585 386.521 232.86Z" fill="#FF0000"/>
</mask>
<g mask="url(#mask8_50_69)">
<path d="M429.458 229.897C422.742 233.765 408.806 232.347 404.024 230.842C395.701 228.21 389.413 221.171 388.318 212.447C387.377 205.146 385.214 196.067 377.247 188.841C383.758 183.092 403.741 173.121 412.775 175.943C426.062 179.906 437.74 205.413 433.766 218.845C433.395 219.727 433.201 220.612 432.83 221.494C431.715 224.139 430.219 227.068 429.458 229.897Z" fill="url(#paint17_radial_50_69)"/>
</g>
<path d="M443.837 204.086C443.65 214.778 434.81 223.293 424.094 223.106C413.377 222.919 404.84 214.1 405.027 203.408C405.213 192.716 414.053 184.201 424.77 184.388C435.486 184.575 444.023 193.394 443.837 204.086Z" fill="url(#paint18_radial_50_69)"/>
<path d="M390.194 228.387C392.828 230.565 395.649 232.214 399.012 233.338L401.978 247.069L396.293 246.259L394.677 236.815C394.199 233.609 392.471 230.559 390.194 228.387Z" fill="url(#paint19_radial_50_69)"/>
<path d="M463.48 328.065L357.438 327.631C357.438 327.631 351.642 325.247 351.617 302.323C351.598 284.726 354.695 263.498 356.292 259.499C359.197 252.229 372.673 243.334 384.068 241.381C391.547 239.959 399.203 240.848 406.146 243.512L411.489 245.644C415.585 247.243 420.391 246.71 423.952 244.045C428.048 241.026 432.855 239.428 438.019 239.25C449.058 238.895 459.029 245.822 462.412 256.302C468.109 273.177 469.534 291.294 466.685 309.057L463.48 328.065Z" fill="url(#paint20_radial_50_69)"/>
<mask id="mask9_50_69" style="mask-type:alpha" maskUnits="userSpaceOnUse" x="339" y="231" width="74" height="56">
<path d="M409.328 286.9L343.216 286.629C343.216 286.629 339.602 285.143 339.587 270.851C339.575 259.879 341.506 246.645 342.501 244.152C344.313 239.619 352.714 234.074 359.819 232.856C364.481 231.97 369.254 232.524 373.583 234.185L376.914 235.514C379.468 236.511 382.464 236.178 384.684 234.517C387.238 232.635 390.235 231.638 393.454 231.527C400.337 231.306 406.553 235.625 408.663 242.159C412.215 252.679 413.103 263.975 411.326 275.049L409.328 286.9Z" fill="#FF0000"/>
</mask>
<g mask="url(#mask9_50_69)">
<path d="M386.817 282.758L419.79 292.437C419.79 292.437 437.499 343.172 435.008 348.915C432.518 354.658 343.907 365.086 343.907 365.086L343.624 313.584C355.805 309.384 366.929 302.468 376.111 293.314L386.817 282.758Z" fill="url(#paint21_radial_50_69)"/>
</g>
<path d="M337.957 291.733C339.124 309.532 300.611 304.291 302.595 283.979L305.724 241.105C306.181 232.898 313.841 226.964 321.921 228.302C328.421 229.379 333.141 234.661 333.707 241.057L335.048 258.023C335.048 258.023 337.285 281.476 337.957 291.733Z" fill="url(#paint22_radial_50_69)"/>
<path d="M319.667 227.749C320.398 227.69 321.1 227.806 321.979 227.951C328.303 228.998 333.199 234.311 333.56 240.852L337.592 285.924L319.004 283.679L319.667 227.749Z" fill="url(#paint23_radial_50_69)"/>
<path d="M383.913 285.246C370.241 304.756 343.642 313.589 343.642 313.589C343.471 313.539 330.786 316.294 324.636 314.489C311.225 310.552 302.322 298.148 302.523 284.592C310.5 280.807 338.462 257.271 338.462 257.271L352.874 244.841C361.726 237.443 373.145 233.944 384.629 235.279C392.205 236.021 399.301 239.03 405.213 243.542C405.213 243.542 394.565 270.045 383.913 285.246Z" fill="url(#paint24_radial_50_69)"/>
<path d="M463.606 328.065H366.922C366.745 328.065 346.09 275.485 346.09 275.485L356.418 259.499C362.828 249.908 372.799 243.334 384.194 241.381C391.673 239.959 399.329 240.848 406.272 243.512L411.615 245.644C415.711 247.243 420.517 246.71 424.078 244.045C428.174 241.026 432.981 239.428 438.145 239.25C449.184 238.895 459.155 245.822 462.538 256.302C468.235 273.177 469.66 291.294 466.811 309.057L463.606 328.065Z" fill="url(#paint25_radial_50_69)"/>
<path d="M343.642 313.589C343.471 313.539 338.461 257.271 338.461 257.271L352.874 244.841C361.726 237.443 373.144 233.944 384.629 235.279C392.205 236.021 399.3 239.03 405.213 243.543L409.738 247.093C411.538 248.483 402.423 273.091 382.157 289.713C356.704 310.589 343.642 313.589 343.642 313.589Z" fill="url(#paint26_radial_50_69)"/>
<path d="M450.186 242.464C455.349 245.484 459.445 250.28 461.403 256.142C466.922 273.194 468.525 291.313 465.676 309.076L462.471 328.082H447.87L448.049 327.727L451.075 309.076V308.898C452.144 301.971 452.5 294.687 451.966 287.582L450.719 270.53C450.363 266.089 450.186 261.649 450.186 257.208V242.464Z" fill="url(#paint27_radial_50_69)"/>
</g>
<path d="M357.144 150.274C357.255 147.825 359.148 145.826 361.602 145.586H361.586C359.148 145.346 357.255 143.362 357.127 140.914L356.919 136.834L356.71 140.914C356.598 143.362 354.689 145.346 352.252 145.586C354.689 145.826 356.598 147.825 356.71 150.274L356.935 154.93L357.144 150.274Z" fill="#DEBE1A"/>
<path d="M376.593 169.914C376.654 168.5 377.751 167.345 379.167 167.208C377.751 167.071 376.67 165.932 376.593 164.519L376.472 162.164L376.35 164.519C376.273 165.932 375.177 167.071 373.776 167.208C375.193 167.345 376.289 168.5 376.35 169.914L376.472 172.603L376.593 169.914Z" fill="#DEBE1A"/>
</g>
</g>
</g>
<defs>
<radialGradient id="paint0_radial_50_69" cx="0" cy="0" r="1" gradientUnits="userSpaceOnUse" gradientTransform="translate(293.588 272.057) rotate(-59.4897) scale(20.2113)">
<stop offset="0.38" stop-color="#F7B0B2"/>
<stop offset="0.49" stop-color="#F6AFB1"/>
<stop offset="0.59" stop-color="#F5AEB0"/>
<stop offset="0.64" stop-color="#F1ABAD"/>
<stop offset="0.69" stop-color="#EDA7AA"/>
<stop offset="0.73" stop-color="#E7A1A4"/>
<stop offset="0.76" stop-color="#E09B9F"/>
<stop offset="0.8" stop-color="#D79397"/>
<stop offset="0.83" stop-color="#CE8A8F"/>
<stop offset="0.86" stop-color="#C27F85"/>
<stop offset="0.88" stop-color="#B6747B"/>
<stop offset="0.9" stop-color="#AB6A72"/>
<stop offset="0.92" stop-color="#A06069"/>
</radialGradient>
<radialGradient id="paint1_radial_50_69" cx="0" cy="0" r="1" gradientUnits="userSpaceOnUse" gradientTransform="translate(289.486 267.491) rotate(-59.4897) scale(8.40925)">
<stop stop-color="#A06069"/>
<stop offset="0.46" stop-color="#A06069" stop-opacity="0.5"/>
<stop offset="0.92" stop-color="#A06069" stop-opacity="0"/>
</radialGradient>
<radialGradient id="paint2_radial_50_69" cx="0" cy="0" r="1" gradientUnits="userSpaceOnUse" gradientTransform="translate(366.151 226.466) rotate(-6.00005) scale(28.7904 28.7904)">
<stop offset="0.38" stop-color="#F7B0B2"/>
<stop offset="0.49" stop-color="#F6AFB1"/>
<stop offset="0.59" stop-color="#F5AEB0"/>
<stop offset="0.64" stop-color="#F1ABAD"/>
<stop offset="0.69" stop-color="#EDA7AA"/>
<stop offset="0.73" stop-color="#E7A1A4"/>
<stop offset="0.76" stop-color="#E09B9F"/>
<stop offset="0.8" stop-color="#D79397"/>
<stop offset="0.83" stop-color="#CE8A8F"/>
<stop offset="0.86" stop-color="#C27F85"/>
<stop offset="0.88" stop-color="#B6747B"/>
<stop offset="0.9" stop-color="#AB6A72"/>
<stop offset="0.92" stop-color="#A06069"/>
</radialGradient>
<radialGradient id="paint3_radial_50_69" cx="0" cy="0" r="1" gradientUnits="userSpaceOnUse" gradientTransform="translate(368.658 218.628) rotate(-6.00001) scale(24.1311)">
<stop offset="0.38" stop-color="#BC5118"/>
<stop offset="0.49" stop-color="#BB5118"/>
<stop offset="0.59" stop-color="#BA5018"/>
<stop offset="0.64" stop-color="#B64E17"/>
<stop offset="0.69" stop-color="#B24C17"/>
<stop offset="0.73" stop-color="#AC4916"/>
<stop offset="0.77" stop-color="#A54616"/>
<stop offset="0.81" stop-color="#9C4215"/>
<stop offset="0.84" stop-color="#933D14"/>
<stop offset="0.87" stop-color="#873813"/>
<stop offset="0.9" stop-color="#7B3212"/>
<stop offset="0.91" stop-color="#742E12"/>
<stop offset="0.92" stop-color="#6D2B11"/>
</radialGradient>
<radialGradient id="paint4_radial_50_69" cx="0" cy="0" r="1" gradientUnits="userSpaceOnUse" gradientTransform="translate(382.615 200.188) rotate(-6.00005) scale(21.0359 21.0359)">
<stop offset="0.38" stop-color="#BC5118"/>
<stop offset="0.49" stop-color="#BB5118"/>
<stop offset="0.59" stop-color="#BA5018"/>
<stop offset="0.64" stop-color="#B64E17"/>
<stop offset="0.69" stop-color="#B24C17"/>
<stop offset="0.73" stop-color="#AC4916"/>
<stop offset="0.77" stop-color="#A54616"/>
<stop offset="0.81" stop-color="#9C4215"/>
<stop offset="0.84" stop-color="#933D14"/>
<stop offset="0.87" stop-color="#873813"/>
<stop offset="0.9" stop-color="#7B3212"/>
<stop offset="0.91" stop-color="#742E12"/>
<stop offset="0.92" stop-color="#6D2B11"/>
</radialGradient>
<radialGradient id="paint5_radial_50_69" cx="0" cy="0" r="1" gradientUnits="userSpaceOnUse" gradientTransform="translate(375.225 235.853) rotate(-6.00005) scale(17.5357 17.5357)">
<stop offset="0.38" stop-color="#A06069" stop-opacity="0"/>
<stop offset="0.61" stop-color="#A06069" stop-opacity="0.425"/>
<stop offset="0.84" stop-color="#A06069" stop-opacity="0.85"/>
<stop offset="0.88" stop-color="#A06069" stop-opacity="0.925"/>
<stop offset="0.92" stop-color="#A06069"/>
</radialGradient>
<radialGradient id="paint6_radial_50_69" cx="0" cy="0" r="1" gradientUnits="userSpaceOnUse" gradientTransform="translate(345.44 232.341) scale(39.1671 39.1671)">
<stop offset="0.52" stop-color="#BDA1E7"/>
<stop offset="0.6" stop-color="#BCA0E6"/>
<stop offset="0.67" stop-color="#BCA0E5"/>
<stop offset="0.7" stop-color="#BB9FE1"/>
<stop offset="0.74" stop-color="#BA9EDD"/>
<stop offset="0.76" stop-color="#B89CD6"/>
<stop offset="0.79" stop-color="#B699D0"/>
<stop offset="0.81" stop-color="#B496C7"/>
<stop offset="0.84" stop-color="#B193BE"/>
<stop offset="0.86" stop-color="#AD8FB2"/>
<stop offset="0.88" stop-color="#AA8BA6"/>
<stop offset="0.9" stop-color="#A58695"/>
<stop offset="0.92" stop-color="#A18085"/>
</radialGradient>
<radialGradient id="paint7_radial_50_69" cx="0" cy="0" r="1" gradientUnits="userSpaceOnUse" gradientTransform="translate(345.936 267.281) rotate(2.34264) scale(30.4053 30.4053)">
<stop offset="0.52" stop-color="#746493"/>
<stop offset="0.69" stop-color="#746493" stop-opacity="0.575"/>
<stop offset="0.86" stop-color="#746493" stop-opacity="0.15"/>
<stop offset="0.89" stop-color="#746493" stop-opacity="0.075"/>
<stop offset="0.92" stop-color="#746493" stop-opacity="0"/>
</radialGradient>
<radialGradient id="paint8_radial_50_69" cx="0" cy="0" r="1" gradientUnits="userSpaceOnUse" gradientTransform="translate(311.473 268.37) rotate(-60.4897) scale(48.7218 48.7218)">
<stop offset="0.52" stop-color="#BDA1E7"/>
<stop offset="0.6" stop-color="#BCA0E6"/>
<stop offset="0.67" stop-color="#BCA0E5"/>
<stop offset="0.7" stop-color="#BB9FE1"/>
<stop offset="0.74" stop-color="#BA9EDD"/>
<stop offset="0.76" stop-color="#B89CD6"/>
<stop offset="0.79" stop-color="#B699D0"/>
<stop offset="0.81" stop-color="#B496C7"/>
<stop offset="0.84" stop-color="#B193BE"/>
<stop offset="0.86" stop-color="#AD8FB2"/>
<stop offset="0.88" stop-color="#AA8BA6"/>
<stop offset="0.9" stop-color="#A58695"/>
<stop offset="0.92" stop-color="#A18085"/>
</radialGradient>
<radialGradient id="paint9_radial_50_69" cx="0" cy="0" r="1" gradientUnits="userSpaceOnUse" gradientTransform="translate(311.035 282.089) rotate(-60.4897) scale(34.8632)">
<stop offset="0.52" stop-color="#A18085" stop-opacity="0"/>
<stop offset="0.69" stop-color="#A18085" stop-opacity="0.425"/>
<stop offset="0.86" stop-color="#A18085" stop-opacity="0.85"/>
<stop offset="0.89" stop-color="#A18085" stop-opacity="0.925"/>
<stop offset="0.92" stop-color="#A18085"/>
</radialGradient>
<radialGradient id="paint10_radial_50_69" cx="0" cy="0" r="1" gradientUnits="userSpaceOnUse" gradientTransform="translate(329.565 245.08) rotate(2.34266) scale(48.7217 48.7217)">
<stop offset="0.52" stop-color="#BDA1E7"/>
<stop offset="0.6" stop-color="#BCA0E6"/>
<stop offset="0.67" stop-color="#BCA0E5"/>
<stop offset="0.7" stop-color="#BB9FE1"/>
<stop offset="0.74" stop-color="#BA9EDD"/>
<stop offset="0.76" stop-color="#B89CD6"/>
<stop offset="0.79" stop-color="#B699D0"/>
<stop offset="0.81" stop-color="#B496C7"/>
<stop offset="0.84" stop-color="#B193BE"/>
<stop offset="0.86" stop-color="#AD8FB2"/>
<stop offset="0.88" stop-color="#AA8BA6"/>
<stop offset="0.9" stop-color="#A58695"/>
<stop offset="0.92" stop-color="#A18085"/>
</radialGradient>
<radialGradient id="paint11_radial_50_69" cx="0" cy="0" r="1" gradientUnits="userSpaceOnUse" gradientTransform="translate(389.725 231.229) scale(51.2638 51.2638)">
<stop offset="0.52" stop-color="#BDA1E7"/>
<stop offset="0.69" stop-color="#BDA1E7" stop-opacity="0.575"/>
<stop offset="0.86" stop-color="#BDA1E7" stop-opacity="0.15"/>
<stop offset="0.89" stop-color="#BDA1E7" stop-opacity="0.075"/>
<stop offset="0.92" stop-color="#BDA1E7" stop-opacity="0"/>
</radialGradient>
<radialGradient id="paint12_radial_50_69" cx="0" cy="0" r="1" gradientUnits="userSpaceOnUse" gradientTransform="translate(389.098 231.564) rotate(2.34266) scale(51.2637 51.2637)">
<stop offset="0.52" stop-color="#BDA1E7"/>
<stop offset="0.69" stop-color="#BDA1E7" stop-opacity="0.575"/>
<stop offset="0.86" stop-color="#BDA1E7" stop-opacity="0.15"/>
<stop offset="0.89" stop-color="#BDA1E7" stop-opacity="0.075"/>
<stop offset="0.92" stop-color="#BDA1E7" stop-opacity="0"/>
</radialGradient>
<radialGradient id="paint13_radial_50_69" cx="0" cy="0" r="1" gradientUnits="userSpaceOnUse" gradientTransform="translate(379.585 273.02) scale(37.361 37.361)">
<stop offset="0.52" stop-color="#746493"/>
<stop offset="0.69" stop-color="#746493" stop-opacity="0.575"/>
<stop offset="0.86" stop-color="#746493" stop-opacity="0.15"/>
<stop offset="0.89" stop-color="#746493" stop-opacity="0.075"/>
<stop offset="0.92" stop-color="#746493" stop-opacity="0"/>
</radialGradient>
<radialGradient id="paint14_radial_50_69" cx="0" cy="0" r="1" gradientUnits="userSpaceOnUse" gradientTransform="translate(299.854 220.604) rotate(9.40205) scale(32.4182 32.4182)">
<stop offset="0.38" stop-color="#F7B0B2"/>
<stop offset="0.49" stop-color="#F6AFB1"/>
<stop offset="0.59" stop-color="#F5AEB0"/>
<stop offset="0.64" stop-color="#F1ABAD"/>
<stop offset="0.69" stop-color="#EDA7AA"/>
<stop offset="0.73" stop-color="#E7A1A4"/>
<stop offset="0.76" stop-color="#E09B9F"/>
<stop offset="0.8" stop-color="#D79397"/>
<stop offset="0.83" stop-color="#CE8A8F"/>
<stop offset="0.86" stop-color="#C27F85"/>
<stop offset="0.88" stop-color="#B6747B"/>
<stop offset="0.9" stop-color="#AB6A72"/>
<stop offset="0.92" stop-color="#A06069"/>
</radialGradient>
<radialGradient id="paint15_radial_50_69" cx="0" cy="0" r="1" gradientUnits="userSpaceOnUse" gradientTransform="translate(304.316 211.829) rotate(9.40205) scale(13.4881 13.4881)">
<stop stop-color="#A06069"/>
<stop offset="0.46" stop-color="#A06069" stop-opacity="0.5"/>
<stop offset="0.92" stop-color="#A06069" stop-opacity="0"/>
</radialGradient>
<radialGradient id="paint16_radial_50_69" cx="0" cy="0" r="1" gradientUnits="userSpaceOnUse" gradientTransform="translate(383.787 229.168) rotate(1.00001) scale(46.179 46.179)">
<stop offset="0.38" stop-color="#F7B0B2"/>
<stop offset="0.49" stop-color="#F6AFB1"/>
<stop offset="0.59" stop-color="#F5AEB0"/>
<stop offset="0.64" stop-color="#F1ABAD"/>
<stop offset="0.69" stop-color="#EDA7AA"/>
<stop offset="0.73" stop-color="#E7A1A4"/>
<stop offset="0.76" stop-color="#E09B9F"/>
<stop offset="0.8" stop-color="#D79397"/>
<stop offset="0.83" stop-color="#CE8A8F"/>
<stop offset="0.86" stop-color="#C27F85"/>
<stop offset="0.88" stop-color="#B6747B"/>
<stop offset="0.9" stop-color="#AB6A72"/>
<stop offset="0.92" stop-color="#A06069"/>
</radialGradient>
<radialGradient id="paint17_radial_50_69" cx="0" cy="0" r="1" gradientUnits="userSpaceOnUse" gradientTransform="translate(379.239 218.02) rotate(1) scale(38.7057)">
<stop offset="0.38" stop-color="#BC5118"/>
<stop offset="0.49" stop-color="#BB5118"/>
<stop offset="0.59" stop-color="#BA5018"/>
<stop offset="0.64" stop-color="#B64E17"/>
<stop offset="0.69" stop-color="#B24C17"/>
<stop offset="0.73" stop-color="#AC4916"/>
<stop offset="0.77" stop-color="#A54616"/>
<stop offset="0.81" stop-color="#9C4215"/>
<stop offset="0.84" stop-color="#933D14"/>
<stop offset="0.87" stop-color="#873813"/>
<stop offset="0.9" stop-color="#7B3212"/>
<stop offset="0.91" stop-color="#742E12"/>
<stop offset="0.92" stop-color="#6D2B11"/>
</radialGradient>
<radialGradient id="paint18_radial_50_69" cx="0" cy="0" r="1" gradientUnits="userSpaceOnUse" gradientTransform="translate(405.623 194.749) rotate(1.00001) scale(33.7411)">
<stop offset="0.38" stop-color="#BC5118"/>
<stop offset="0.49" stop-color="#BB5118"/>
<stop offset="0.59" stop-color="#BA5018"/>
<stop offset="0.64" stop-color="#B64E17"/>
<stop offset="0.69" stop-color="#B24C17"/>
<stop offset="0.73" stop-color="#AC4916"/>
<stop offset="0.77" stop-color="#A54616"/>
<stop offset="0.81" stop-color="#9C4215"/>
<stop offset="0.84" stop-color="#933D14"/>
<stop offset="0.87" stop-color="#873813"/>
<stop offset="0.9" stop-color="#7B3212"/>
<stop offset="0.91" stop-color="#742E12"/>
<stop offset="0.92" stop-color="#6D2B11"/>
</radialGradient>
<radialGradient id="paint19_radial_50_69" cx="0" cy="0" r="1" gradientUnits="userSpaceOnUse" gradientTransform="translate(396.398 245.886) rotate(1.00001) scale(28.1268)">
<stop offset="0.38" stop-color="#A06069" stop-opacity="0"/>
<stop offset="0.61" stop-color="#A06069" stop-opacity="0.425"/>
<stop offset="0.84" stop-color="#A06069" stop-opacity="0.85"/>
<stop offset="0.88" stop-color="#A06069" stop-opacity="0.925"/>
<stop offset="0.92" stop-color="#A06069"/>
</radialGradient>
<radialGradient id="paint20_radial_50_69" cx="0" cy="0" r="1" gradientUnits="userSpaceOnUse" gradientTransform="translate(348.274 242.172) scale(62.8227 62.8227)">
<stop offset="0.52" stop-color="#BDA1E7"/>
<stop offset="0.6" stop-color="#BCA0E6"/>
<stop offset="0.67" stop-color="#BCA0E5"/>
<stop offset="0.7" stop-color="#BB9FE1"/>
<stop offset="0.74" stop-color="#BA9EDD"/>
<stop offset="0.76" stop-color="#B89CD6"/>
<stop offset="0.79" stop-color="#B699D0"/>
<stop offset="0.81" stop-color="#B496C7"/>
<stop offset="0.84" stop-color="#B193BE"/>
<stop offset="0.86" stop-color="#AD8FB2"/>
<stop offset="0.88" stop-color="#AA8BA6"/>
<stop offset="0.9" stop-color="#A58695"/>
<stop offset="0.92" stop-color="#A18085"/>
</radialGradient>
<radialGradient id="paint21_radial_50_69" cx="0" cy="0" r="1" gradientUnits="userSpaceOnUse" gradientTransform="translate(337.553 283.031) rotate(16.3588) scale(48.7691)">
<stop offset="0.52" stop-color="#746493"/>
<stop offset="0.69" stop-color="#746493" stop-opacity="0.575"/>
<stop offset="0.86" stop-color="#746493" stop-opacity="0.15"/>
<stop offset="0.89" stop-color="#746493" stop-opacity="0.075"/>
<stop offset="0.92" stop-color="#746493" stop-opacity="0"/>
</radialGradient>
<radialGradient id="paint22_radial_50_69" cx="0" cy="0" r="1" gradientUnits="userSpaceOnUse" gradientTransform="translate(315.586 245.137) rotate(9.40205) scale(78.1481 78.1481)">
<stop offset="0.52" stop-color="#BDA1E7"/>
<stop offset="0.6" stop-color="#BCA0E6"/>
<stop offset="0.67" stop-color="#BCA0E5"/>
<stop offset="0.7" stop-color="#BB9FE1"/>
<stop offset="0.74" stop-color="#BA9EDD"/>
<stop offset="0.76" stop-color="#B89CD6"/>
<stop offset="0.79" stop-color="#B699D0"/>
<stop offset="0.81" stop-color="#B496C7"/>
<stop offset="0.84" stop-color="#B193BE"/>
<stop offset="0.86" stop-color="#AD8FB2"/>
<stop offset="0.88" stop-color="#AA8BA6"/>
<stop offset="0.9" stop-color="#A58695"/>
<stop offset="0.92" stop-color="#A18085"/>
</radialGradient>
<radialGradient id="paint23_radial_50_69" cx="0" cy="0" r="1" gradientUnits="userSpaceOnUse" gradientTransform="translate(294.681 252.043) rotate(9.40205) scale(55.9193 55.9193)">
<stop offset="0.52" stop-color="#A18085" stop-opacity="0"/>
<stop offset="0.69" stop-color="#A18085" stop-opacity="0.425"/>
<stop offset="0.86" stop-color="#A18085" stop-opacity="0.85"/>
<stop offset="0.89" stop-color="#A18085" stop-opacity="0.925"/>
<stop offset="0.92" stop-color="#A18085"/>
</radialGradient>
<radialGradient id="paint24_radial_50_69" cx="0" cy="0" r="1" gradientUnits="userSpaceOnUse" gradientTransform="translate(320.703 242.122) rotate(16.3588) scale(78.148 78.1481)">
<stop offset="0.52" stop-color="#BDA1E7"/>
<stop offset="0.6" stop-color="#BCA0E6"/>
<stop offset="0.67" stop-color="#BCA0E5"/>
<stop offset="0.7" stop-color="#BB9FE1"/>
<stop offset="0.74" stop-color="#BA9EDD"/>
<stop offset="0.76" stop-color="#B89CD6"/>
<stop offset="0.79" stop-color="#B699D0"/>
<stop offset="0.81" stop-color="#B496C7"/>
<stop offset="0.84" stop-color="#B193BE"/>
<stop offset="0.86" stop-color="#AD8FB2"/>
<stop offset="0.88" stop-color="#AA8BA6"/>
<stop offset="0.9" stop-color="#A58695"/>
<stop offset="0.92" stop-color="#A18085"/>
</radialGradient>
<radialGradient id="paint25_radial_50_69" cx="0" cy="0" r="1" gradientUnits="userSpaceOnUse" gradientTransform="translate(419.306 240.388) scale(82.2253 82.2253)">
<stop offset="0.52" stop-color="#BDA1E7"/>
<stop offset="0.69" stop-color="#BDA1E7" stop-opacity="0.575"/>
<stop offset="0.86" stop-color="#BDA1E7" stop-opacity="0.15"/>
<stop offset="0.89" stop-color="#BDA1E7" stop-opacity="0.075"/>
<stop offset="0.92" stop-color="#BDA1E7" stop-opacity="0"/>
</radialGradient>
<radialGradient id="paint26_radial_50_69" cx="0" cy="0" r="1" gradientUnits="userSpaceOnUse" gradientTransform="translate(418.599 244.216) rotate(16.3589) scale(82.2253)">
<stop offset="0.52" stop-color="#BDA1E7"/>
<stop offset="0.69" stop-color="#BDA1E7" stop-opacity="0.575"/>
<stop offset="0.86" stop-color="#BDA1E7" stop-opacity="0.15"/>
<stop offset="0.89" stop-color="#BDA1E7" stop-opacity="0.075"/>
<stop offset="0.92" stop-color="#BDA1E7" stop-opacity="0"/>
</radialGradient>
<radialGradient id="paint27_radial_50_69" cx="0" cy="0" r="1" gradientUnits="userSpaceOnUse" gradientTransform="translate(403.041 307.42) scale(59.9258 59.9258)">
<stop offset="0.52" stop-color="#746493"/>
<stop offset="0.69" stop-color="#746493" stop-opacity="0.575"/>
<stop offset="0.86" stop-color="#746493" stop-opacity="0.15"/>
<stop offset="0.89" stop-color="#746493" stop-opacity="0.075"/>
<stop offset="0.92" stop-color="#746493" stop-opacity="0"/>
</radialGradient>
<clipPath id="clip0_50_69">
<rect x="4.78" width="505.09" height="370" rx="8" fill="white"/>
</clipPath>
</defs>
</svg>
