<svg width="17" height="18" viewBox="0 0 17 18" fill="none" xmlns="http://www.w3.org/2000/svg">
<path d="M11.93 12.43L16 16.5M7.40666 14.3142C8.24805 14.3142 9.0812 14.1484 9.85854 13.8265C10.6359 13.5045 11.3422 13.0325 11.9371 12.4376C12.5321 11.8426 13.004 11.1363 13.326 10.359C13.648 9.58162 13.8137 8.74847 13.8137 7.90708C13.8137 7.06569 13.648 6.23254 13.326 5.4552C13.004 4.67786 12.5321 3.97154 11.9371 3.37659C11.3422 2.78164 10.6359 2.3097 9.85854 1.98771C9.0812 1.66572 8.24805 1.5 7.40666 1.5C5.70739 1.5 4.07772 2.17503 2.87616 3.37659C1.6746 4.57815 0.999573 6.20782 0.999573 7.90708C0.999573 9.60635 1.6746 11.236 2.87616 12.4376C4.07772 13.6391 5.70739 14.3142 7.40666 14.3142Z" stroke="#001E00" stroke-width="1.25" stroke-miterlimit="10" stroke-linecap="round" stroke-linejoin="round"/>
</svg>
